<?xml version="1.0" encoding="UTF-8" standalone="no"?>
<!-- Created with Inkscape (http://www.inkscape.org/) -->

<svg
   xmlns:dc="http://purl.org/dc/elements/1.1/"
   xmlns:cc="http://creativecommons.org/ns#"
   xmlns:rdf="http://www.w3.org/1999/02/22-rdf-syntax-ns#"
   xmlns:svg="http://www.w3.org/2000/svg"
   xmlns="http://www.w3.org/2000/svg"
   xmlns:sodipodi="http://sodipodi.sourceforge.net/DTD/sodipodi-0.dtd"
   xmlns:inkscape="http://www.inkscape.org/namespaces/inkscape"
   version="1.1"
   id="svg3713"
   xml:space="preserve"
   width="222.85359"
   height="114.24599"
   viewBox="0 0 222.85359 114.24599"
   sodipodi:docname="GoldRush-Logo - Main Text Only.svg"
   inkscape:version="0.92.3 (2405546, 2018-03-11)"><title
     id="title3965">Gold Rush Logo</title><metadata
     id="metadata3719"><rdf:RDF><cc:Work
         rdf:about=""><dc:format>image/svg+xml</dc:format><dc:type
           rdf:resource="http://purl.org/dc/dcmitype/StillImage" /><dc:title>Gold Rush Logo</dc:title></cc:Work></rdf:RDF></metadata><defs
     id="defs3717"><clipPath
       clipPathUnits="userSpaceOnUse"
       id="clipPath3731"><path
         d="M 0,288 H 288 V 0 H 0 Z"
         id="path3729"
         inkscape:connector-curvature="0" /></clipPath></defs><sodipodi:namedview
     pagecolor="#ffffff"
     bordercolor="#666666"
     borderopacity="1"
     objecttolerance="10"
     gridtolerance="10"
     guidetolerance="10"
     inkscape:pageopacity="0"
     inkscape:pageshadow="2"
     inkscape:window-width="1920"
     inkscape:window-height="1017"
     id="namedview3715"
     showgrid="false"
     inkscape:zoom="2"
     inkscape:cx="119.96232"
     inkscape:cy="-48.004208"
     inkscape:window-x="3832"
     inkscape:window-y="396"
     inkscape:window-maximized="1"
     inkscape:current-layer="g3725" /><g
     id="g3721"
     inkscape:groupmode="layer"
     inkscape:label="GoldRush-Logo - Black Background"
     transform="matrix(1.3333333,0,0,-1.3333333,-82.727731,302.19626)"><g
       id="g3725"><g
         id="g3727"
         clip-path="url(#clipPath3731)"><g
           id="g3733"
           transform="translate(60.6323,110.6895)" /><g
           id="g3737"
           transform="translate(70.4922,104.7822)" /><g
           id="g3741"
           transform="translate(86.4722,115.0176)" /><g
           id="g3745"
           transform="translate(106.6318,115.4814)" /><g
           id="g3749"
           transform="translate(108.6865,115.7275)" /><g
           id="g3753"
           transform="translate(121.0601,104.7822)" /><g
           id="g3757"
           transform="translate(137.0654,115.7275)" /><g
           id="g3761"
           transform="translate(149.1836,115.0576)" /><g
           id="g3765"
           transform="translate(164.7363,116.2012)" /><g
           id="g3769"
           transform="translate(183.0371,115.4814)" /><g
           id="g3773"
           transform="translate(185.8857,102.2275)" /><g
           id="g3777"
           transform="translate(194.8525,104.7861)" /><g
           id="g3781"
           transform="translate(202.6523,115.0576)" /><g
           id="g3785"
           transform="translate(227.7744,115.5508)" /><g
           id="g3789"
           transform="translate(231.8516,107.0068)" /><g
           id="g3793"
           transform="translate(21.1489,89.1904)" /><g
           id="g3797"
           transform="translate(23.5762,89.1904)" /><g
           id="g3801"
           transform="translate(35.4629,89.7363)" /><g
           id="g3805"
           transform="translate(41.0269,81.5146)" /><g
           id="g3809"
           transform="translate(62.853,89.4473)" /><g
           id="g3813"
           transform="translate(69.3413,83.4541)" /><g
           id="g3817"
           transform="translate(76.3745,89.7363)" /><g
           id="g3821"
           transform="translate(82.1279,83.875)" /><g
           id="g3825"
           transform="translate(88.8398,77.7422)" /><g
           id="g3829"
           transform="translate(101.5684,87.5156)" /><g
           id="g3833"
           transform="translate(106.8682,85.0391)" /><g
           id="g3837"
           transform="translate(114.0581,85.4688)" /><g
           id="g3841"
           transform="translate(124.8638,83.875)" /><g
           id="g3845"
           transform="translate(132.228,85.0391)" /><g
           id="g3849"
           transform="translate(136.5698,85.0059)" /><g
           id="g3853"
           transform="translate(147.7227,83.875)" /><g
           id="g3857"
           transform="translate(160.7646,83.4541)" /><g
           id="g3861"
           transform="translate(167.7822,85.2705)" /><g
           id="g3865"
           transform="translate(174.2617,77.7422)" /><g
           id="g3869"
           transform="translate(184.5479,88.7451)" /><g
           id="g3873"
           transform="translate(191.5469,83.875)" /><g
           id="g3877"
           transform="translate(195.9883,81.5146)" /><g
           id="g3881"
           transform="translate(207.8672,83.4541)" /><g
           id="g3885"
           transform="translate(226.2686,89.4473)" /><g
           id="g3889"
           transform="translate(231.3037,85.0391)" /><g
           id="g3893"
           transform="translate(238.4277,85.4688)" /><g
           id="g3897"
           transform="translate(250.7529,88.7451)" /><g
           id="g3901"
           transform="translate(255.3994,85.4688)" /><g
           id="g3905"
           transform="translate(266.0654,83.6611)" /><g
           id="g3909"
           transform="translate(275.4434,86.1123)" /><g
           id="g3913"
           transform="translate(216.2861,129.2559)" /><g
           id="g3917"
           transform="translate(172.9951,127.6777)"><path
             d="M 0,0 -0.212,-0.573 -0.671,-1 -1.457,-1.175 -2.654,-1 l -0.035,0.023 -0.106,0.065 -0.161,0.11 -0.198,0.141 -0.216,0.181 -0.234,0.215 -0.23,0.253 -0.219,0.289 -0.047,-0.066 -0.06,-0.185 -0.038,-0.297 0.057,-0.399 0.201,-0.495 0.4,-0.584 0.667,-0.667 0.964,-0.728 h -5.415 l 0.961,0.728 0.67,0.667 0.398,0.589 0.202,0.49 0.049,0.403 L -5.069,0.027 -5.14,0.211 -5.175,0.277 -5.401,-0.012 -5.636,-0.26 -5.864,-0.477 -6.085,-0.661 -6.436,-0.912 -6.54,-0.977 -6.576,-1 -7.772,-1.175 -8.56,-1 l -0.461,0.427 -0.212,0.57 -0.033,0.63 0.074,0.567 0.095,0.421 0.049,0.156 4.455,5.712 L -0.187,1.774 -0.139,1.615 -0.04,1.194 0.028,0.63 Z M -0.13,1.615 -0.177,1.774 -4.593,7.498 -9.053,1.774 -9.104,1.615 -9.202,1.198 -9.271,0.63 l 0.032,-0.633 0.21,-0.575 0.466,-0.427 0.791,-0.177 1.201,0.177 0.031,0.023 0.107,0.065 0.156,0.107 0.201,0.141 0.219,0.184 0.231,0.218 0.23,0.253 0.221,0.278 0.032,-0.056 0.062,-0.182 0.03,-0.293 -0.048,-0.402 -0.205,-0.486 -0.399,-0.589 -0.666,-0.668 -0.981,-0.741 h 5.466 l -0.987,0.741 -0.66,0.668 -0.405,0.589 -0.202,0.486 -0.054,0.402 0.04,0.293 0.058,0.182 0.041,0.056 0.213,-0.278 0.231,-0.253 0.232,-0.218 0.222,-0.184 0.196,-0.141 0.159,-0.107 0.1,-0.065 0.044,-0.023 1.193,-0.177 0.792,0.177 0.466,0.427 0.212,0.575 0.028,0.633 -0.065,0.568 z"
             style="fill:#dab006;fill-opacity:1;fill-rule:nonzero;stroke:none"
             id="path3919"
             inkscape:connector-curvature="0" /></g><g
           id="g3921"
           transform="translate(216.2686,129.2598)"><path
             d="m 0,0 -0.127,-0.431 -0.21,-0.41 -0.282,-0.372 -0.363,-0.292 -0.406,-0.21 -0.432,-0.116 -0.449,-0.029 -0.452,0.057 -0.434,0.135 -0.405,0.223 -0.355,0.303 -0.289,0.05 -0.244,-0.009 -0.202,-0.051 -0.162,-0.127 -0.112,-0.166 -0.055,-0.238 v -0.294 l 0.067,-0.356 0.086,-0.322 0.124,-0.324 0.148,-0.332 0.169,-0.332 0.172,-0.325 0.363,-0.649 0.157,-0.301 h -3.572 l 0.156,0.301 0.177,0.32 0.361,0.654 0.161,0.332 0.153,0.332 0.121,0.327 0.092,0.321 0.064,0.357 v 0.295 l -0.064,0.232 -0.104,0.168 -0.165,0.121 -0.202,0.057 -0.246,0.009 -0.275,-0.05 -0.364,-0.297 -0.411,-0.213 -0.433,-0.12 -0.445,-0.044 -0.449,0.045 -0.436,0.132 -0.405,0.215 -0.354,0.297 -0.296,0.374 -0.207,0.398 -0.13,0.432 -0.039,0.448 0.039,0.448 0.13,0.438 0.205,0.408 0.298,0.361 0.351,0.299 0.395,0.206 0.422,0.117 0.437,0.021 0.427,-0.058 0.427,-0.145 0.398,-0.221 0.36,-0.312 0.012,0.018 -0.291,0.369 -0.211,0.404 -0.132,0.435 -0.033,0.445 0.033,0.449 0.132,0.436 0.206,0.407 0.296,0.362 0.358,0.303 0.399,0.213 0.416,0.133 0.443,0.039 0.432,-0.039 0.425,-0.131 0.397,-0.215 0.363,-0.3 0.284,-0.36 0.215,-0.408 0.122,-0.433 0.045,-0.45 -0.04,-0.442 -0.119,-0.429 -0.212,-0.412 -0.289,-0.372 0.015,-0.012 0.352,0.302 0.399,0.212 0.422,0.135 0.438,0.035 0.433,-0.035 0.425,-0.13 L -0.982,2.402 -0.619,2.098 -0.337,1.74 -0.129,1.326 0,0.895 0.044,0.445 Z M -0.116,1.332 -0.329,1.744 -0.616,2.105 -0.979,2.411 -1.379,2.622 -1.802,2.758 -2.239,2.793 -2.677,2.758 -3.099,2.622 -3.503,2.411 -3.856,2.105 -3.564,2.474 -3.357,2.88 -3.238,3.32 -3.194,3.764 -3.238,4.216 -3.364,4.65 -3.579,5.057 -3.865,5.415 -4.231,5.726 -4.627,5.938 -5.052,6.067 -5.488,6.108 -5.931,6.067 -6.351,5.938 -6.752,5.726 -7.109,5.415 -7.403,5.057 -7.615,4.646 -7.744,4.21 -7.782,3.758 -7.744,3.311 -7.615,2.877 -7.403,2.472 -7.109,2.097 -7.469,2.405 -7.867,2.628 -8.292,2.771 -8.728,2.833 -9.165,2.809 -9.589,2.69 -9.988,2.484 l -0.353,-0.298 -0.296,-0.363 -0.209,-0.412 -0.126,-0.434 -0.043,-0.452 0.043,-0.448 0.126,-0.433 0.209,-0.403 0.296,-0.377 0.359,-0.295 0.404,-0.217 0.437,-0.128 0.452,-0.052 0.445,0.042 0.439,0.126 0.405,0.215 0.367,0.296 0.272,0.045 0.242,-0.008 0.204,-0.052 0.157,-0.115 0.106,-0.171 0.059,-0.233 v -0.291 l -0.059,-0.352 -0.093,-0.326 -0.124,-0.326 -0.151,-0.33 -0.166,-0.333 -0.175,-0.327 -0.18,-0.328 -0.175,-0.316 -0.166,-0.317 h 3.609 l -0.169,0.317 -0.179,0.316 -0.183,0.328 -0.175,0.327 -0.167,0.333 -0.148,0.33 -0.125,0.326 -0.084,0.326 -0.07,0.352 v 0.291 l 0.057,0.233 0.117,0.171 0.155,0.115 0.198,0.052 0.242,0.008 0.282,-0.045 0.358,-0.307 0.403,-0.223 0.434,-0.134 0.458,-0.056 0.449,0.031 0.433,0.114 0.408,0.212 0.363,0.293 0.287,0.371 0.213,0.408 0.125,0.438 0.042,0.447 -0.042,0.45 z"
             style="fill:#dab006;fill-opacity:1;fill-rule:nonzero;stroke:none"
             id="path3923"
             inkscape:connector-curvature="0" /></g><g
           id="g3925"
           transform="translate(80.3984,123.9297)"><path
             d="M 0,0 -4.479,5.88 0,11.843 4.396,5.88 Z M -4.49,5.88 0,-0.014 4.405,5.88 0,11.859 Z"
             style="fill:#dab006;fill-opacity:1;fill-rule:nonzero;stroke:none"
             id="path3927"
             inkscape:connector-curvature="0" /></g><g
           id="g3929"
           transform="translate(129.9326,130.9932)"><path
             d="m 0,0 -0.19,-0.616 -0.304,-0.578 -0.405,-0.515 -4.407,-4.521 -4.411,4.57 -0.414,0.514 -0.298,0.578 -0.194,0.62 -0.071,0.632 0.039,0.642 0.155,0.612 0.28,0.577 0.405,0.514 0.494,0.419 0.555,0.289 0.588,0.171 0.612,0.046 0.605,-0.066 0.593,-0.185 0.555,-0.301 0.507,-0.43 0.501,0.423 0.552,0.3 0.584,0.179 0.614,0.058 0.609,-0.058 0.589,-0.179 0.558,-0.297 0.5,-0.42 0.4,-0.512 0.277,-0.575 0.156,-0.614 0.042,-0.638 z m -0.115,1.893 -0.277,0.578 -0.4,0.514 -0.502,0.419 -0.556,0.299 -0.592,0.18 -0.613,0.06 L -3.669,3.883 -4.254,3.703 -4.81,3.404 -5.306,2.985 -5.805,3.41 -6.366,3.712 -6.961,3.9 -7.566,3.965 -8.178,3.916 -8.768,3.747 -9.322,3.454 -9.823,3.035 -10.226,2.521 -10.509,1.94 l -0.158,-0.614 -0.04,-0.638 0.076,-0.64 0.191,-0.62 0.301,-0.575 0.417,-0.521 4.416,-4.578 4.414,4.526 0.404,0.52 0.305,0.577 L 0.007,0 0.087,0.636 0.046,1.28 Z"
             style="fill:#dab006;fill-opacity:1;fill-rule:nonzero;stroke:none"
             id="path3931"
             inkscape:connector-curvature="0" /></g><g
           id="g3933"
           transform="translate(96.7266,223.4189)"><path
             d="m 0,0 c 0.136,-0.567 0.286,-1.689 0.458,-3.36 0.172,-1.673 0.257,-2.892 0.257,-3.656 0,-0.293 -0.067,-0.654 -0.198,-1.085 -0.822,0.018 -1.518,0.097 -2.091,0.235 -1.449,2.292 -2.471,3.727 -3.062,4.316 -1.106,1.093 -2.526,2.024 -4.263,2.786 -1.276,0.567 -2.745,0.852 -4.405,0.852 -3.185,0 -5.989,-1.466 -8.414,-4.399 -2.421,-2.933 -3.634,-7.292 -3.634,-13.077 0,-2.718 0.473,-5.356 1.415,-7.918 0.945,-2.561 2.363,-4.569 4.25,-6.024 1.889,-1.458 4.11,-2.185 6.666,-2.185 1.243,0 2.558,0.165 3.951,0.497 0.707,0.156 1.278,0.469 1.718,0.935 0.306,0.312 0.503,0.778 0.599,1.402 0.154,1.129 0.23,2.738 0.23,4.822 0,2.026 -0.028,3.419 -0.087,4.18 -0.13,0.292 -0.262,0.48 -0.386,0.567 -0.122,0.089 -0.512,0.228 -1.157,0.424 l -2.549,0.701 c -0.553,0.138 -0.894,0.303 -1.028,0.5 -0.04,0.254 -0.058,0.441 -0.058,0.557 0,0.275 0.065,0.659 0.2,1.144 0.344,0.119 0.582,0.176 0.713,0.176 2.081,0 3.885,-0.068 5.409,-0.209 0.535,-0.036 1.118,-0.055 1.747,-0.055 l 4.52,0.061 1.92,0.059 c 0.227,0.018 0.867,0 1.916,-0.059 0.021,-0.509 0.027,-0.94 0.027,-1.29 0,-0.218 -0.068,-0.462 -0.196,-0.735 -0.327,-0.2 -0.88,-0.449 -1.664,-0.749 -0.782,-0.298 -1.219,-0.496 -1.315,-0.597 -0.152,-0.156 -0.257,-0.402 -0.315,-0.733 -0.055,-0.331 -0.087,-1.494 -0.087,-3.485 0,-2.306 -0.006,-3.684 -0.028,-4.134 -0.075,-1.443 -0.116,-2.264 -0.116,-2.46 0,-0.721 -0.095,-1.172 -0.284,-1.348 -0.536,-0.547 -2.189,-1.166 -4.966,-1.859 -2.776,-0.694 -6.002,-1.041 -9.684,-1.041 -2.577,0 -4.815,0.21 -6.711,0.63 -1.9,0.422 -3.515,1.042 -4.85,1.864 -1.796,1.096 -3.33,2.427 -4.608,3.99 -1.277,1.566 -2.232,3.259 -2.862,5.081 -0.877,2.579 -1.313,5.152 -1.313,7.717 0,2.875 0.646,5.789 1.943,8.745 0.955,2.132 2.296,4.052 4.019,5.767 1.729,1.711 3.888,3.076 6.483,4.093 2.597,1.017 5.417,1.526 8.47,1.526 0.38,0 1.002,-0.05 1.859,-0.147 2.328,0 4.504,-0.297 6.525,-0.894 C -3.014,1.531 -1.334,0.822 0,0"
             style="fill:#dab006;fill-opacity:1;fill-rule:nonzero;stroke:none"
             id="path3935"
             inkscape:connector-curvature="0" /></g><g
           id="g3937"
           transform="translate(124.4707,223.7422)"><path
             d="m 0,0 c -1.659,0 -3.123,-0.397 -4.4,-1.189 -1.278,-0.793 -2.241,-1.669 -2.889,-2.627 -1.085,-1.625 -1.857,-3.4 -2.315,-5.328 -0.455,-1.925 -0.684,-4.268 -0.684,-7.027 0,-1.682 0.065,-2.887 0.201,-3.61 0.034,-0.236 0.095,-0.636 0.17,-1.202 0.17,-1.451 0.373,-2.506 0.599,-3.171 0.821,-2.484 1.401,-4.021 1.745,-4.607 0.571,-0.999 1.419,-1.986 2.543,-2.964 0.57,-0.508 1.401,-0.973 2.485,-1.393 1.088,-0.422 2.172,-0.631 3.26,-0.631 2.057,0 3.966,0.493 5.728,1.48 1.765,0.989 3.177,2.667 4.249,5.033 1.063,2.367 1.597,5.45 1.597,9.245 0,1.566 -0.104,3.689 -0.313,6.368 l -0.143,0.559 c -0.058,0.154 -0.153,0.556 -0.286,1.201 -0.706,3.21 -2.055,5.655 -4.045,7.339 C 5.509,-0.843 3.009,0 0,0 m -19.474,-16.377 c 0,2.427 0.457,4.862 1.371,7.309 0.668,1.758 1.603,3.373 2.805,4.841 1.2,1.468 2.707,2.775 4.516,3.918 1.812,1.144 3.66,1.965 5.55,2.464 1.885,0.5 3.994,0.75 6.319,0.75 3.963,0 7.406,-0.764 10.321,-2.29 2.919,-1.525 5.216,-3.59 6.894,-6.192 2.173,-3.384 3.26,-6.936 3.26,-10.651 0,-5.54 -1.838,-10.284 -5.507,-14.235 -3.67,-3.952 -8.774,-5.929 -15.312,-5.929 -1.622,0 -3.137,0.107 -4.547,0.325 -1.068,0.155 -2.001,0.369 -2.803,0.644 -1.45,0.488 -2.259,0.773 -2.428,0.85 -2.08,1.213 -3.749,2.457 -5.006,3.728 -1.257,1.272 -2.326,2.708 -3.202,4.315 -0.477,0.898 -1.021,2.522 -1.632,4.871 -0.396,1.506 -0.599,3.266 -0.599,5.282"
             style="fill:#dab006;fill-opacity:1;fill-rule:nonzero;stroke:none"
             id="path3939"
             inkscape:connector-curvature="0" /></g><g
           id="g3941"
           transform="translate(150.1221,190.3159)"><path
             d="M 0,0 C 0.596,0.173 1.427,0.345 2.507,0.502 3.584,0.665 4.22,0.745 4.408,0.745 5.149,0.763 5.647,0.886 5.896,1.114 6.012,1.585 6.064,1.975 6.064,2.288 L 6.012,6.049 6.183,9.867 v 2.439 l 0.027,2.879 -0.057,3.054 0.115,6.55 0.028,2.966 v 0.412 C 6.16,30.223 6.033,31.355 5.91,31.563 5.787,31.765 5.237,32.025 4.266,32.339 4.17,32.376 3.806,32.525 3.176,32.781 2.699,32.975 2.271,33.113 1.89,33.191 1.223,33.368 0.755,33.573 0.488,33.807 0.451,34.316 0.43,34.706 0.43,34.981 c 0,0.156 0.008,0.392 0.031,0.706 0.167,0.096 0.35,0.145 0.54,0.145 0.461,0 2.117,-0.078 4.981,-0.235 l 4.092,0.03 3.035,-0.06 c 1.312,0 3.003,0.084 5.064,0.242 0.606,0.055 0.96,0.081 1.056,0.081 0.288,0 0.489,-0.077 0.603,-0.232 0.151,-0.211 0.226,-0.598 0.226,-1.16 0,-0.443 -0.105,-0.781 -0.315,-1.015 -0.114,-0.135 -0.533,-0.253 -1.258,-0.351 l -3.547,-0.853 c -0.094,-0.04 -0.257,-0.117 -0.486,-0.232 -0.077,-0.14 -0.136,-0.257 -0.172,-0.355 l -0.029,-0.821 -0.087,-1.853 v -0.527 -0.324 c 0,-0.098 -0.021,-0.635 -0.063,-1.615 -0.013,-0.254 -0.019,-0.511 -0.019,-0.764 0,-0.313 0.015,-0.844 0.053,-1.587 0.057,-1.176 0.089,-2.204 0.089,-3.084 0,-1.017 -0.032,-2.183 -0.089,-3.496 -0.018,-0.493 -0.025,-1.127 -0.025,-1.91 L 13.992,1.785 c 0,-0.587 0.098,-0.97 0.288,-1.145 l 2.721,-0.113 1.686,0.03 1.802,-0.03 c 3.071,0 5.486,0.359 7.238,1.081 1.317,0.546 2.178,1.093 2.58,1.638 0.646,0.585 1.176,1.218 1.586,1.901 0.411,0.681 0.873,1.812 1.388,3.393 h 0.913 c 0.458,0 0.973,-0.041 1.548,-0.116 V 7.603 c 0,-1.405 -0.174,-3.865 -0.516,-7.374 -0.134,-1.408 -0.268,-2.266 -0.398,-2.577 -0.441,-0.081 -0.719,-0.118 -0.833,-0.118 h -1.057 l -1.491,-0.03 c -0.172,0 -1.302,0.079 -3.403,0.235 -0.386,0.019 -2.205,0.089 -5.469,0.206 -3.261,0.116 -6.456,0.175 -9.584,0.175 L 7.155,-2.055 C 4.904,-2.115 2.797,-2.221 0.833,-2.377 H 0.404 c -0.118,0 -0.299,0.009 -0.548,0.029 -0.037,0.214 -0.056,0.4 -0.056,0.557 0,0.821 0.069,1.419 0.2,1.791"
             style="fill:#dab006;fill-opacity:1;fill-rule:nonzero;stroke:none"
             id="path3943"
             inkscape:connector-curvature="0" /></g><g
           id="g3945"
           transform="translate(201.373,222.9673)"><path
             d="M 0,0 C -0.037,-0.604 -0.058,-1.035 -0.058,-1.29 L 0,-6.274 v -4.337 c 0.038,-1.405 0.058,-2.639 0.058,-3.692 L 0,-17.089 0.086,-21.75 0,-24.619 c 0,-2.68 0.486,-4.497 1.461,-5.451 1.407,-1.368 3.356,-2.054 5.833,-2.054 1.893,0 3.286,0.186 4.184,0.556 1.866,0.742 3.349,1.729 4.451,2.959 1.091,1.23 1.928,2.973 2.501,5.228 0.57,2.257 0.855,4.588 0.855,6.99 0,3.944 -0.615,7.164 -1.844,9.666 -1.23,2.498 -2.915,4.38 -5.05,5.64 C 10.254,0.174 7.802,0.803 5.036,0.803 3.089,0.803 1.411,0.536 0,0 m -13.88,-32.651 c 0.287,0.076 0.879,0.195 1.774,0.352 1.779,0.31 2.938,0.731 3.493,1.257 0.343,0.335 0.562,0.972 0.658,1.908 0.017,0.235 0.088,3.217 0.2,8.944 l -0.03,3.224 0.03,3.901 -0.085,9.997 v 1.172 c 0,0.51 -0.135,0.901 -0.4,1.173 -0.134,0.137 -0.506,0.205 -1.118,0.205 -0.495,0 -1.069,-0.058 -1.715,-0.175 -0.844,-0.041 -1.594,-0.116 -2.264,-0.235 -0.113,-0.02 -0.294,-0.049 -0.543,-0.089 l -0.027,2.583 c 1.126,0.373 2.736,0.735 4.836,1.085 3.473,0.588 7.744,0.883 12.823,0.883 4.232,0 7.331,-0.245 9.298,-0.735 2.975,-0.763 5.396,-1.894 7.264,-3.4 2.5,-2.015 4.376,-4.345 5.624,-6.995 1.249,-2.649 1.875,-5.538 1.875,-8.667 0,-3.946 -0.839,-7.335 -2.516,-10.16 -1.68,-2.823 -4.093,-5.089 -7.24,-6.788 -2.213,-1.213 -5.215,-1.818 -9.013,-1.818 l -5.867,0.237 -1.716,0.078 -2.319,-0.053 -0.684,0.053 -2.406,-0.053 -3.174,0.032 c -0.117,0 -1.091,-0.065 -2.92,-0.188 -0.611,-0.036 -1.414,-0.062 -2.403,-0.079 -0.615,0 -1.076,-0.008 -1.375,-0.027 -0.038,0.43 -0.06,1.221 -0.06,2.378"
             style="fill:#dab006;fill-opacity:1;fill-rule:nonzero;stroke:none"
             id="path3947"
             inkscape:connector-curvature="0" /></g><g
           id="g3949"
           transform="translate(75.0088,162.7388)"><path
             d="m 0,0 c 0.916,-0.04 1.583,-0.057 2.004,-0.057 3.241,0 5.54,0.598 6.896,1.791 1.351,1.192 2.031,2.788 2.031,4.783 0,1.233 -0.168,2.392 -0.499,3.477 -0.334,1.086 -0.749,1.892 -1.243,2.421 -0.704,0.764 -1.624,1.341 -2.767,1.733 -0.838,0.294 -2.178,0.437 -4.025,0.437 -0.872,0 -1.627,-0.048 -2.253,-0.143 L 0.086,13.883 0.144,9.92 0.057,7.514 0.086,4.315 C 0.046,3.416 0.02,2.251 0,0.824 Z m -12.877,-18.986 c 0.498,0.272 1.23,0.473 2.203,0.602 0.974,0.127 1.851,0.336 2.632,0.629 0.093,0.391 0.155,0.675 0.171,0.85 0.039,0.276 0.061,1.217 0.061,2.819 l -0.029,6.545 0.112,3.522 -0.056,2.728 0.056,1.585 c 0.058,2.134 0.085,4.128 0.085,5.988 0,4.071 -0.047,6.672 -0.141,7.806 l -1.688,0.354 c -1.544,0.095 -2.577,0.195 -3.092,0.292 l -0.055,1.76 0.114,0.324 c 0.953,0.156 1.83,0.235 2.63,0.235 0.441,0 1.329,0.008 2.664,0.029 1.373,-0.118 2.116,-0.176 2.231,-0.176 l 1.515,0.086 3.579,0.176 c 2.231,0.237 4.588,0.354 7.069,0.354 3.91,0 7.018,-1.022 9.328,-3.067 2.307,-2.044 3.462,-4.388 3.462,-7.029 0,-1.976 -0.624,-3.772 -1.869,-5.385 -1.247,-1.613 -3.161,-2.833 -5.747,-3.655 0.23,-0.411 0.534,-0.889 0.914,-1.435 0.796,-1.178 1.442,-2.174 1.938,-2.997 l 4.563,-7.598 c 1.146,-2.017 1.893,-3.195 2.247,-3.539 0.353,-0.342 1.084,-0.716 2.189,-1.129 0.858,-0.332 1.514,-0.666 1.977,-1 0.111,-0.33 0.169,-0.623 0.169,-0.876 0,-0.178 -0.011,-0.402 -0.03,-0.678 h -0.771 l -0.574,-0.03 -1.487,0.206 H 22.32 c -0.612,0.1 -1.364,0.148 -2.259,0.148 l -2.864,0.031 c -0.21,0 -0.877,-0.07 -2.003,-0.206 -0.515,-0.061 -0.925,-0.11 -1.228,-0.149 l -0.975,1.94 c -0.801,1.464 -1.364,2.561 -1.687,3.284 -0.841,1.898 -2.281,4.922 -4.324,9.07 -0.95,1.915 -1.621,3.001 -2.001,3.259 -0.57,0.408 -1.555,0.615 -2.948,0.615 -0.379,0 -1.032,-0.019 -1.945,-0.06 C 0.028,-3.325 0,-4.001 0,-4.783 l 0.144,-6.515 -0.173,-5.517 c 0.533,-0.332 1.232,-0.585 2.088,-0.765 1.491,-0.312 2.767,-0.684 3.837,-1.112 0,-0.957 -0.04,-1.681 -0.117,-2.174 -0.361,0.023 -0.591,0.031 -0.685,0.031 L 3.92,-20.896 c -4.103,0.374 -6.534,0.56 -7.299,0.56 -0.495,0 -0.847,-0.011 -1.057,-0.03 l -3.946,-0.265 c -1.204,-0.136 -2.303,-0.204 -3.294,-0.204 h -1.23 c -0.037,0.488 -0.057,0.8 -0.057,0.938 0,0.214 0.029,0.519 0.086,0.911"
             style="fill:#dab006;fill-opacity:1;fill-rule:nonzero;stroke:none"
             id="path3951"
             inkscape:connector-curvature="0" /></g><g
           id="g3953"
           transform="translate(102.6118,177.4727)"><path
             d="m 0,0 -0.083,2.319 c 0.341,0.019 0.697,0.029 1.058,0.029 0.957,0 1.958,-0.029 3.008,-0.09 2.524,-0.136 4.004,-0.203 4.444,-0.203 1.53,0 3.023,0.029 4.484,0.091 1.462,0.061 2.763,0.101 3.898,0.12 1.138,0.018 1.906,0.034 2.308,0.053 L 19.089,1.971 19.145,0.261 V 0.03 c -1.069,-0.156 -2.173,-0.236 -3.32,-0.236 -1.067,0 -1.773,-0.215 -2.119,-0.645 -0.228,-0.274 -0.342,-1.439 -0.342,-3.493 0,-0.625 0.009,-1.135 0.03,-1.525 l 0.028,-1.055 -0.058,-2.762 0.171,-2.348 -0.113,-5.077 0.372,-7.367 c 0.094,-2.13 0.552,-3.9 1.372,-5.311 0.611,-1.037 1.47,-1.85 2.576,-2.435 1.605,-0.822 3.176,-1.234 4.72,-1.234 1.834,0 3.538,0.246 5.124,0.733 0.933,0.276 1.817,0.722 2.647,1.335 0.828,0.619 1.407,1.182 1.731,1.693 0.688,1.073 1.165,2.081 1.43,3.02 0.365,1.292 0.544,3.296 0.544,6.017 0,4.733 -0.246,10.066 -0.742,15.993 l -0.115,1.557 c -0.057,1.152 -0.269,1.927 -0.63,2.318 -0.611,0.606 -1.297,0.907 -2.06,0.907 L 27.7,0.059 l -0.372,0.088 0.056,2.26 h 2.262 L 35.11,2.142 c 1.833,0 3.579,0.088 5.24,0.265 L 40.836,2.348 C 40.95,1.703 41.005,1.252 41.005,1 c 0,-0.219 -0.036,-0.482 -0.112,-0.793 -0.705,-0.2 -1.452,-0.318 -2.233,-0.355 -1.276,-0.174 -1.985,-0.323 -2.117,-0.437 -0.267,-0.236 -0.4,-0.6 -0.4,-1.09 0,-0.351 0.024,-0.862 0.087,-1.528 0.055,-0.487 0.083,-1.341 0.083,-2.553 0,-0.687 0.005,-1.225 0.015,-1.615 0.008,-0.394 0.023,-0.795 0.045,-1.204 0.055,-1.412 0.102,-2.84 0.142,-4.29 l 0.285,-5.962 c 0,-3.993 -0.133,-6.666 -0.4,-8.019 -0.269,-1.35 -0.631,-2.419 -1.087,-3.199 -0.706,-1.177 -1.71,-2.258 -3.005,-3.246 -1.297,-0.992 -2.92,-1.774 -4.864,-2.353 -1.945,-0.579 -4.216,-0.866 -6.81,-0.866 -2.958,0 -5.498,0.406 -7.613,1.218 -2.117,0.815 -3.717,1.878 -4.793,3.201 -1.079,1.32 -1.816,3.038 -2.221,5.149 -0.283,1.45 -0.425,3.521 -0.425,6.222 v 14.001 c 0,3.303 -0.153,5.175 -0.456,5.604 -0.42,0.605 -1.73,0.949 -3.923,1.026 C 0.726,-0.089 0.326,-0.058 0,0"
             style="fill:#dab006;fill-opacity:1;fill-rule:nonzero;stroke:none"
             id="path3955"
             inkscape:connector-curvature="0" /></g><g
           id="g3957"
           transform="translate(172.3096,179.0869)"><path
             d="m 0,0 c 0.189,-0.666 0.36,-1.672 0.515,-3.024 0.23,-2.013 0.342,-3.58 0.342,-4.694 0,-0.353 -0.036,-0.735 -0.112,-1.145 l -0.286,-0.089 -2.062,0.149 -0.344,0.058 c -0.834,2.582 -1.678,4.334 -2.516,5.252 -1.449,1.568 -3.16,2.349 -5.122,2.349 -1.872,0 -3.356,-0.506 -4.452,-1.511 -1.096,-1.01 -1.644,-2.259 -1.644,-3.748 0,-1.254 0.543,-2.456 1.629,-3.612 1.068,-1.154 3.341,-2.259 6.813,-3.313 1.164,-0.35 2.573,-0.918 4.22,-1.696 1.655,-0.78 2.908,-1.63 3.767,-2.55 1.146,-1.212 1.929,-2.382 2.358,-3.508 0.428,-1.126 0.641,-2.529 0.641,-4.212 0,-1.839 -0.332,-3.65 -1.002,-5.433 -0.36,-0.937 -0.94,-1.827 -1.744,-2.67 -0.571,-0.586 -1.456,-1.277 -2.66,-2.07 -1.201,-0.792 -2.445,-1.363 -3.735,-1.717 -1.289,-0.352 -2.942,-0.529 -4.964,-0.529 -1.335,0 -2.931,0.199 -4.78,0.587 l -3.431,1.028 c -0.955,0.272 -1.558,0.519 -1.801,0.733 -0.099,0.08 -0.182,0.266 -0.262,0.559 v 0.322 c 0,0.215 -0.046,1.554 -0.14,4.022 -0.042,1.27 -0.058,2.171 -0.058,2.699 v 1.116 l 2.659,0.059 c 0.914,-2.181 1.506,-3.496 1.771,-3.948 0.591,-1.001 1.243,-1.811 1.96,-2.43 0.714,-0.617 1.563,-1.108 2.553,-1.472 0.992,-0.362 2.068,-0.544 3.229,-0.544 1.026,0 2.161,0.226 3.401,0.675 1.236,0.45 2.232,1.19 2.984,2.22 0.754,1.028 1.128,2.128 1.128,3.303 0,1.451 -0.658,2.793 -1.973,4.027 -0.804,0.763 -2.957,1.781 -6.467,3.056 -3.512,1.271 -5.942,2.409 -7.299,3.407 -1.355,0.999 -2.423,2.336 -3.203,4.009 -0.783,1.673 -1.175,3.284 -1.175,4.83 0,3.112 1.09,5.755 3.262,7.927 2.175,2.172 5.382,3.26 9.615,3.26 0.918,0 2.272,-0.166 4.066,-0.5 C -3.233,1.037 -1.793,0.625 0,0"
             style="fill:#dab006;fill-opacity:1;fill-rule:nonzero;stroke:none"
             id="path3959"
             inkscape:connector-curvature="0" /></g><g
           id="g3961"
           transform="translate(181.915,142.0488)"><path
             d="M 0,0 C 0,0.589 0.062,1.283 0.175,2.084 L 3.788,2.731 C 4.231,2.827 4.76,2.986 5.376,3.2 l 0.382,7.339 c -0.079,2.64 -0.12,4.616 -0.12,5.924 l 0.028,0.707 c 0.057,0.803 0.092,2.817 0.092,6.046 l -0.079,0.851 0.079,2.465 -0.064,2.553 v 1.261 c 0,1.133 -0.082,2.465 -0.246,3.992 -0.015,0.139 -0.087,0.37 -0.212,0.705 -0.155,0.059 -0.325,0.097 -0.508,0.116 -0.182,0.019 -0.374,0.049 -0.563,0.089 -0.756,0.137 -1.552,0.234 -2.403,0.291 l -0.433,0.12 c -0.521,0.058 -0.913,0.138 -1.183,0.235 -0.06,0.566 -0.088,0.928 -0.088,1.086 0,0.234 0.056,0.557 0.173,0.967 0.386,0.079 0.918,0.119 1.603,0.119 0.69,0 1.168,0.009 1.433,0.029 2.333,-0.254 4.062,-0.391 5.188,-0.413 0.515,0 1.038,-0.015 1.562,-0.041 0.524,-0.032 0.988,-0.045 1.39,-0.045 0.629,0 2.169,0.097 4.615,0.295 0.401,0.094 0.841,0.146 1.319,0.146 0.703,0 1.299,-0.041 1.775,-0.119 0.019,-0.41 0.027,-0.704 0.027,-0.88 0,-0.313 -0.039,-0.695 -0.115,-1.144 l -5.063,-0.822 c -0.4,-0.195 -0.601,-0.481 -0.601,-0.852 l 0.064,-1.086 0.018,-0.47 -0.013,-1.289 -0.039,-0.999 v -0.234 c 0.039,-0.216 0.052,-0.403 0.052,-0.558 l -0.052,-3.727 c 0.039,-0.354 0.052,-0.616 0.052,-0.793 0,-0.096 -0.009,-0.411 -0.032,-0.939 -0.014,-0.312 -0.02,-0.636 -0.02,-0.967 0,-0.297 0.02,-0.99 0.052,-2.087 0.537,-0.095 0.983,-0.154 1.347,-0.174 l 4.228,-0.087 h 2.058 l 5.146,-0.031 4.998,0.146 c 0.648,0 1.332,0.07 2.06,0.206 0.034,0.667 0.062,2.3 0.083,4.902 l 0.057,1.32 -0.172,4.988 -0.199,2.055 c -0.057,0.137 -0.19,0.265 -0.402,0.382 -0.668,0.392 -2.003,0.832 -4.005,1.321 -0.365,0.078 -0.706,0.176 -1.031,0.293 0.037,0.686 0.115,1.243 0.23,1.674 0.416,0.018 0.672,0.029 0.771,0.029 l 2.771,-0.029 c 1.773,-0.235 3.571,-0.352 5.402,-0.352 0.417,0 0.749,0.008 0.999,0.029 l 3.713,0.115 c 0.343,0.021 0.675,0.041 1,0.06 0.686,0.157 1.391,0.234 2.113,0.234 0.556,0 1.219,-0.029 2.004,-0.086 -0.023,-0.764 -0.069,-1.458 -0.146,-2.084 -1.743,-0.372 -2.887,-0.641 -3.431,-0.808 -0.537,-0.166 -1.083,-0.396 -1.633,-0.69 l -0.173,-0.586 v -0.499 l 0.028,-0.765 -0.036,-0.379 c -0.053,-0.411 -0.077,-0.724 -0.077,-0.941 v -0.731 c 0.037,-0.883 0.058,-1.371 0.058,-1.468 v -3.728 l 0.027,-2.818 -0.077,-3.726 c -0.025,-0.863 0.012,-2.621 0.105,-5.284 V 9.392 L 41.32,5.93 c 0,-0.646 -0.018,-1.428 -0.058,-2.348 0.399,-0.117 0.769,-0.216 1.11,-0.292 1.784,-0.394 3.131,-0.794 4.041,-1.206 L 46.499,0.03 C 45.739,0.012 45.289,0 45.156,0 c -0.913,0 -1.96,0.059 -3.141,0.179 -1.562,0.175 -4.079,0.262 -7.544,0.262 -1.56,0 -3.579,-0.124 -6.06,-0.382 -0.268,0 -0.585,0.057 -0.969,0.176 0.02,0.901 0.068,1.537 0.147,1.909 l 2.199,0.528 2.321,0.379 c 0.228,0.059 0.522,0.149 0.886,0.268 0.205,1.584 0.322,4.216 0.342,7.892 l 0.029,2.496 c -0.115,1.037 -0.173,2.279 -0.173,3.728 -0.704,0.057 -1.466,0.097 -2.287,0.116 l -13.257,0.146 -0.258,0.03 -0.197,0.03 c -0.131,0 -0.287,-0.01 -0.459,-0.03 -0.494,-0.019 -0.916,-0.03 -1.256,-0.03 h -0.801 c -0.362,0 -0.774,-0.067 -1.232,-0.205 l -0.138,-2.2 v -0.381 c 0.037,-0.529 0.056,-0.871 0.056,-1.029 V 4.785 c 0,-0.51 0.03,-1.028 0.082,-1.557 L 13.711,3.051 17.937,2.378 C 18.148,2.3 18.31,2.251 18.426,2.232 18.674,2.173 18.887,2.084 19.06,1.966 19.116,1.517 19.143,1.212 19.143,1.059 19.143,0.804 19.104,0.452 19.028,0 c -0.685,-0.019 -1.27,-0.027 -1.747,-0.027 -0.422,0 -0.811,0.008 -1.177,0.027 -0.17,0 -0.331,0.012 -0.487,0.03 l -4.04,0.178 C 10.623,0.307 9.289,0.354 7.568,0.354 L 6.965,0.324 C 6.162,0.284 5.694,0.254 5.559,0.235 4.377,0.079 2.521,0 0,0"
             style="fill:#dab006;fill-opacity:1;fill-rule:nonzero;stroke:none"
             id="path3963"
             inkscape:connector-curvature="0" /></g></g></g></g></svg>